<?xml version="1.0" encoding="utf-8"?>
<!-- Generator: Adobe Illustrator 15.0.0, SVG Export Plug-In . SVG Version: 6.00 Build 0)  -->
<!DOCTYPE svg PUBLIC "-//W3C//DTD SVG 1.1//EN" "http://www.w3.org/Graphics/SVG/1.1/DTD/svg11.dtd">
<svg version="1.1" id="Warstwa_1" xmlns="http://www.w3.org/2000/svg" xmlns:xlink="http://www.w3.org/1999/xlink" x="0px" y="0px"
	 width="418.75px" height="335.619px" viewBox="0 0 418.75 335.619" enable-background="new 0 0 418.75 335.619"
	 xml:space="preserve">
<g>
	<path fill-rule="evenodd" clip-rule="evenodd" fill="#1D1D1B" d="M187.795,309.074l9.002-9.002V119.529l-9.002-9.002H9.002H0v9.002
		l9.002-9.002L0,119.529v180.543v9.002h9.002L0,300.072l9.002,9.002H187.795L187.795,309.074z M178.792,128.531v162.54H18.004
		v-162.54H178.792L178.792,128.531z M196.797,119.529v-9.002h-9.002L196.797,119.529L196.797,119.529z M187.795,309.074h9.002
		v-9.002L187.795,309.074L187.795,309.074z"/>
	<path fill-rule="evenodd" clip-rule="evenodd" fill="#018F50" d="M67.266,69.517l2.25-3.501l2.5-4l3.001-4.251l3.25-4.501
		l3.251-4.251l3.001-4.251l3-3.751l2.751-3.501v-1.5l-0.25-2v-2.25v-2.501l0.25-2.25l0.5-2.25l0.75-2l1-1.5l0.25-0.75l0.75-1.5
		l1.25-2.25l2.25-3l2.751-3.001l4.001-3.25l5.001-3.251l6.001-2.75L128.781,0h12.753l12.003,1.25l10.752,2.25l9.252,3.5l8.252,4.501
		l6.751,5.502l5.251,6.501l3.501,7.251l2.25,8.252l0.25,9.002l-1.5,9.752l-3.501,10.252l-5.251,11.003l-7.502,11.502l-9.502,12.003
		l-23.756,25.756l-19.004,22.505l-14.503,19.255l-10.503,16.254l-7.251,13.502l-4.501,11.254l-1.75,9.002v7.002l1.5,5.502l2.5,4
		l3.001,3l3.001,2.252l2.5,1.5l1.5,1.25v1l-1.75,1.25l-10.752,5.002l-9.752,4l-8.752,3.002l-8.002,2.25l-7.251,1.25l-6.251,0.5
		h-5.501l-4.751-0.75l-4.25-1.25l-3.251-1.75l-2.75-2.25l-2.25-2.502l-1.75-3l-1.25-3.002l-0.5-3.25l-0.25-3.25l0.75-7.002l2-7.502
		l3.251-8.502l4.501-8.752l5.501-9.502l6.752-10.004l7.501-10.252l8.502-10.502l9.252-10.753l10.002-10.752l10.752-11.003
		l11.503-11.002l11.753-11.002l12.253-10.503l12.753-10.502l13.003-10.253l5.001-4.251l4.251-4.501l3.501-4.751l3-5.001l2.25-5.251
		l1.5-5.001l1-5.251l0.25-4.751l-0.5-4.251l-1-4.001l-1.5-3.5l-2.25-2.751l-3-2l-3.251-1.25l-4.001-0.25l-4.751,1l-2.75,0.5
		l-2.501,0.5l-2.5,0.75l-2.5,1l-2.5,1.25l-2.751,1.5l-2.75,1.75l-3.001,2l-1,0.25l-1.75,1.25l-2.75,2.251l-3.501,2.25l-4.251,2.25
		l-5.001,1.5l-5.501,0.5l-6.001-1.25l-4.001,1l-3.751,1.75l-3.751,2.5l-3.751,2.751l-3.251,3l-3,3.001l-2.75,3l-2.25,2.751l-1.25,1
		l-0.75,0.75l-0.5,0.5l-0.5,0.5l-0.75,0.5l-1,0.5l-1.75,0.5l-2.25,1L67.266,69.517L67.266,69.517z M321.077,128.281h-9.003
		l-7.251,0.5l-6.002,0.75l-4.501,1.5l-3.501,1.5l-2.25,2l-1.501,2l-0.5,2v2.25l0.25,2.25l0.75,2l1.001,1.75l1,1.5l1,1.25l0.5,0.75
		l0.25,0.25l5.752,4.501l5.001,4.501l4.501,4.001l4.001,3.751l3.001,3.001l2.25,2.25l1.251,1.5l0.25,0.5h-1.751l-3.751-0.75
		l-5.001-1l-5.251-1l-5.252-0.5l-4.501,0.25l-2.75,1.25l-0.5,2.502l0.75,3.5l1.5,3.5l2.251,3.752l2.75,3.5l3.501,3.502l4.501,3.25
		l5.252,2.75l6.001,2.252l6.752,1.5l7.752,0.75h8.752l9.752-1.25l10.503-2.252l11.753-3.5l12.503-4.752l13.753-6.5l-8.002,10.752
		l-8.002,10.002l-8.002,9.502l-8.252,8.752l-8.002,8.002l-8.252,7.502l-8.252,6.752l-8.002,6.252l-8.252,5.502l-8.002,5
		l-7.752,4.252l-8.002,3.5l-7.501,3.002l-7.502,2.25l-7.502,1.75l-7.002,1.25l-7.001,0.25h-6.752l-6.502-1l-6.001-1.5l-6.002-2
		l-5.501-2.752l-5.252-3.25l-4.751-4l-4.501-4.752l-4.001-5.252l-3.751-5.75l-3.25-6.502l-2.75-7.252l-2.25-7.752l-1.75-8.252
		l-1.25-9.002l-4.501-4.502l-4.751-3.25l-5.001-1.5l-5.251-0.5l-5.501,0.5l-5.501,1.5l-5.752,2.5l-5.751,3l-5.751,3.752l-6.001,4
		l-5.751,4.252l-5.751,4.502l-5.501,4.75l-5.501,4.502l-5.251,4l-5.251,4.002h-0.25h-0.5l-0.5-0.25v-1l5.751-5.002l5.251-6.002
		l5.001-6.502l5.001-7.252l4.751-7.752l4.501-8l4.251-8.504l4.501-8.752l4.251-9.002l4.251-9.001l4.25-9.002l4.501-8.752
		l4.501-8.752l4.501-8.252l4.751-8.002l5.001-7.502l5.251-7.001l5.501-6.501l5.751-5.501l6.001-5.001l6.502-4l7.001-2.751l7.252-2
		l7.752-0.75l8.502,0.5l8.752,2l9.503,3.251l10.002,5.001l10.753,6.251l11.502,8.252l12.004,10.002L321.077,128.281L321.077,128.281
		z"/>
	<path fill="none" stroke="#FFFFFF" stroke-width="0.2501" stroke-miterlimit="22.9256" d="M67.266,69.517L67.266,69.517l2.25-3.501
		l2.5-4l3.001-4.251l3.25-4.501l3.251-4.251l3.001-4.251l3-3.751l2.751-3.501l0,0v-1.5l-0.25-2v-2.25v-2.501l0.25-2.25l0.5-2.25
		l0.75-2l1-1.5l0,0l0.25-0.75l0.75-1.5l1.25-2.25l2.25-3l2.751-3.001l4.001-3.25l5.001-3.251l6.001-2.75l0,0L128.781,0h12.753
		l12.003,1.25l10.752,2.25l9.252,3.5l8.252,4.501l6.751,5.502l5.251,6.501l3.501,7.251l2.25,8.252l0.25,9.002l-1.5,9.752
		l-3.501,10.252l-5.251,11.003l-7.502,11.502l-9.502,12.003l0,0l-23.756,25.756l-19.004,22.505l-14.503,19.255l-10.503,16.254
		l-7.251,13.502l-4.501,11.254l-1.75,9.002v7.002l1.5,5.502l2.5,4l3.001,3l3.001,2.252l2.5,1.5l1.5,1.25v1l-1.75,1.25l0,0
		l-10.752,5.002l-9.752,4l-8.752,3.002l-8.002,2.25l-7.251,1.25l-6.251,0.5h-5.501l-4.751-0.75l-4.25-1.25l-3.251-1.75l-2.75-2.25
		l-2.25-2.502l-1.75-3l-1.25-3.002l-0.5-3.25l-0.25-3.25l0,0l0.75-7.002l2-7.502l3.251-8.502l4.501-8.752l5.501-9.502l6.752-10.004
		l7.501-10.252l8.502-10.502l9.252-10.753l10.002-10.752l10.752-11.003l11.503-11.002l11.753-11.002l12.253-10.503l12.753-10.502
		l13.003-10.253l0,0l5.001-4.251l4.251-4.501l3.501-4.751l3-5.001l2.25-5.251l1.5-5.001l1-5.251l0.25-4.751l-0.5-4.251l-1-4.001
		l-1.5-3.5l-2.25-2.751l-3-2l-3.251-1.25l-4.001-0.25l-4.751,1l0,0l-2.75,0.5l-2.501,0.5l-2.5,0.75l-2.5,1l-2.5,1.25l-2.751,1.5
		l-2.75,1.75l-3.001,2l0,0l-1,0.25l-1.75,1.25l-2.75,2.251l-3.501,2.25l-4.251,2.25l-5.001,1.5l-5.501,0.5l-6.001-1.25l0,0l-4.001,1
		l-3.751,1.75l-3.751,2.5l-3.751,2.751l-3.251,3l-3,3.001l-2.75,3l-2.25,2.751l0,0l-1.25,1l-0.75,0.75l-0.5,0.5l-0.5,0.5l-0.75,0.5
		l-1,0.5l-1.75,0.5l-2.25,1L67.266,69.517 M321.077,128.281L321.077,128.281h-9.003l-7.251,0.5l-6.002,0.75l-4.501,1.5l-3.501,1.5
		l-2.25,2l-1.501,2l-0.5,2v2.25l0.25,2.25l0.75,2l1.001,1.75l1,1.5l1,1.25l0.5,0.75l0.25,0.25l0,0l5.752,4.501l5.001,4.501
		l4.501,4.001l4.001,3.751l3.001,3.001l2.25,2.25l1.251,1.5l0.25,0.5l0,0h-1.751l-3.751-0.75l-5.001-1l-5.251-1l-5.252-0.5
		l-4.501,0.25l-2.75,1.25l-0.5,2.502l0,0l0.75,3.5l1.5,3.5l2.251,3.752l2.75,3.5l3.501,3.502l4.501,3.25l5.252,2.75l6.001,2.252
		l6.752,1.5l7.752,0.75h8.752l9.752-1.25l10.503-2.252l11.753-3.5l12.503-4.752l13.753-6.5l0,0l-8.002,10.752l-8.002,10.002
		l-8.002,9.502l-8.252,8.752l-8.002,8.002l-8.252,7.502l-8.252,6.752l-8.002,6.252l-8.252,5.502l-8.002,5l-7.752,4.252l-8.002,3.5
		l-7.501,3.002l-7.502,2.25l-7.502,1.75l-7.002,1.25l-7.001,0.25h-6.752l-6.502-1l-6.001-1.5l-6.002-2l-5.501-2.752l-5.252-3.25
		l-4.751-4l-4.501-4.752l-4.001-5.252l-3.751-5.75l-3.25-6.502l-2.75-7.252l-2.25-7.752l-1.75-8.252l-1.25-9.002l0,0l-4.501-4.502
		l-4.751-3.25l-5.001-1.5l-5.251-0.5l-5.501,0.5l-5.501,1.5l-5.752,2.5l-5.751,3l-5.751,3.752l-6.001,4l-5.751,4.252l-5.751,4.502
		l-5.501,4.75l-5.501,4.502l-5.251,4l-5.251,4.002l0,0h-0.25h-0.5l-0.5-0.25v-1l0,0l5.751-5.002l5.251-6.002l5.001-6.502
		l5.001-7.252l4.751-7.752l4.501-8l4.251-8.504l4.501-8.752l4.251-9.002l4.251-9.001l4.25-9.002l4.501-8.752l4.501-8.752
		l4.501-8.252l4.751-8.002l5.001-7.502l5.251-7.001l5.501-6.501l5.751-5.501l6.001-5.001l6.502-4l7.001-2.751l7.252-2l7.752-0.75
		l8.502,0.5l8.752,2l9.503,3.251l10.002,5.001l10.753,6.251l11.502,8.252l12.004,10.002L321.077,128.281"/>
	<path fill="#1D1D1B" d="M210.037,305.021h12.02c2.38,0,4.158,0.098,5.327,0.301c1.169,0.195,2.212,0.609,3.136,1.24
		c0.924,0.629,1.687,1.463,2.303,2.512c0.616,1.043,0.924,2.219,0.924,3.514c0,1.408-0.378,2.703-1.134,3.879
		c-0.763,1.176-1.792,2.059-3.087,2.646c1.827,0.531,3.241,1.441,4.221,2.723c0.987,1.287,1.478,2.799,1.478,4.535
		c0,1.365-0.315,2.695-0.952,3.99c-0.637,1.289-1.505,2.324-2.604,3.094c-1.1,0.771-2.457,1.246-4.074,1.428
		c-1.008,0.105-3.451,0.176-7.322,0.203h-10.234V305.021L210.037,305.021z M216.113,310.027v6.949h3.977
		c2.365,0,3.836-0.033,4.41-0.104c1.036-0.119,1.854-0.477,2.449-1.072c0.596-0.594,0.89-1.379,0.89-2.352
		c0-0.93-0.252-1.688-0.764-2.268c-0.518-0.58-1.28-0.932-2.289-1.051c-0.602-0.068-2.331-0.104-5.187-0.104H216.113
		L216.113,310.027z M216.113,321.982v8.037h5.614c2.191,0,3.577-0.057,4.165-0.184c0.903-0.16,1.638-0.566,2.205-1.197
		c0.567-0.637,0.854-1.49,0.854-2.555c0-0.902-0.224-1.666-0.657-2.295c-0.441-0.631-1.071-1.092-1.897-1.379
		s-2.625-0.428-5.383-0.428H216.113L216.113,321.982z M267.466,335.086h-6.608l-2.625-6.832h-12.019l-2.479,6.832h-6.439
		l11.711-30.064h6.419L267.466,335.086L267.466,335.086z M256.286,323.193l-4.144-11.158l-4.061,11.158H256.286L256.286,323.193z
		 M270.699,335.086v-30.064h12.782c3.213,0,5.544,0.273,7,0.813s2.625,1.498,3.5,2.877c0.875,1.387,1.31,2.961,1.31,4.738
		c0,2.254-0.665,4.123-1.988,5.594c-1.323,1.463-3.312,2.395-5.95,2.771c1.316,0.77,2.4,1.609,3.255,2.527
		c0.854,0.916,2.002,2.541,3.451,4.879l3.675,5.865h-7.259l-4.39-6.545c-1.561-2.338-2.624-3.807-3.198-4.416
		s-1.184-1.021-1.827-1.254c-0.644-0.223-1.659-0.336-3.06-0.336h-1.225v12.551H270.699L270.699,335.086z M276.775,317.734h4.487
		c2.912,0,4.731-0.119,5.46-0.365c0.721-0.244,1.288-0.672,1.701-1.273c0.406-0.602,0.615-1.352,0.615-2.254
		c0-1.016-0.272-1.828-0.812-2.451s-1.302-1.014-2.289-1.182c-0.49-0.064-1.967-0.098-4.431-0.098h-4.732V317.734L276.775,317.734z
		 M301.03,335.086v-30.064h12.782c3.213,0,5.544,0.273,7,0.813s2.625,1.498,3.5,2.877c0.875,1.387,1.31,2.961,1.31,4.738
		c0,2.254-0.665,4.123-1.988,5.594c-1.323,1.463-3.312,2.395-5.95,2.771c1.316,0.77,2.4,1.609,3.255,2.527
		c0.854,0.916,2.002,2.541,3.451,4.879l3.675,5.865h-7.259l-4.39-6.545c-1.561-2.338-2.624-3.807-3.198-4.416
		s-1.184-1.021-1.827-1.254c-0.645-0.223-1.659-0.336-3.06-0.336h-1.225v12.551H301.03L301.03,335.086z M307.106,317.734h4.487
		c2.912,0,4.731-0.119,5.46-0.365c0.721-0.244,1.288-0.672,1.701-1.273c0.406-0.602,0.615-1.352,0.615-2.254
		c0-1.016-0.272-1.828-0.812-2.451s-1.302-1.014-2.289-1.182c-0.49-0.064-1.967-0.098-4.431-0.098h-4.732V317.734L307.106,317.734z
		 M341.477,325.309l5.908-0.582c0.35,1.988,1.071,3.443,2.163,4.375c1.085,0.924,2.548,1.393,4.396,1.393
		c1.953,0,3.431-0.412,4.417-1.246c0.994-0.826,1.491-1.791,1.491-2.898c0-0.713-0.21-1.314-0.63-1.813
		c-0.413-0.504-1.141-0.938-2.184-1.301c-0.708-0.252-2.332-0.688-4.858-1.316c-3.255-0.805-5.537-1.799-6.847-2.975
		c-1.848-1.652-2.771-3.668-2.771-6.049c0-1.533,0.434-2.961,1.302-4.299c0.868-1.33,2.121-2.344,3.752-3.045
		c1.639-0.691,3.605-1.043,5.915-1.043c3.78,0,6.615,0.826,8.526,2.479c1.904,1.66,2.905,3.865,3.003,6.629l-6.069,0.266
		c-0.259-1.547-0.818-2.66-1.673-3.332c-0.854-0.678-2.135-1.014-3.843-1.014c-1.764,0-3.149,0.355-4.144,1.084
		c-0.645,0.463-0.967,1.086-0.967,1.863c0,0.713,0.302,1.322,0.903,1.826c0.763,0.645,2.625,1.316,5.579,2.01
		c2.954,0.699,5.138,1.42,6.552,2.162c1.414,0.75,2.521,1.764,3.325,3.059c0.798,1.295,1.197,2.893,1.197,4.789
		c0,1.721-0.477,3.338-1.436,4.836c-0.959,1.506-2.31,2.625-4.06,3.354c-1.75,0.734-3.935,1.1-6.545,1.1
		c-3.802,0-6.72-0.875-8.757-2.633C343.087,331.23,341.869,328.668,341.477,325.309L341.477,325.309z M370.988,335.086v-5.76h5.762
		v5.76H370.988L370.988,335.086z M409.811,335.086h-6.607l-2.626-6.832h-12.019l-2.478,6.832h-6.44l11.711-30.064h6.419
		L409.811,335.086L409.811,335.086z M398.632,323.193l-4.145-11.158l-4.06,11.158H398.632L398.632,323.193z M412.988,335.086v-5.76
		h5.762v5.76H412.988L412.988,335.086z"/>
</g>
</svg>
