<?xml version="1.0" encoding="utf-8"?>
<!-- Generator: Adobe Illustrator 24.2.1, SVG Export Plug-In . SVG Version: 6.00 Build 0)  -->
<svg version="1.1" id="Warstwa_1" xmlns="http://www.w3.org/2000/svg" xmlns:xlink="http://www.w3.org/1999/xlink" x="0px" y="0px"
	 viewBox="0 0 170 113" style="enable-background:new 0 0 170 113;" xml:space="preserve">
<style type="text/css">
	.st0{fill:#0094E2;}
	.st1{fill:#007FC8;}
	.st2{fill-rule:evenodd;clip-rule:evenodd;fill:#666666;}
	.st3{fill:#2D1477;}
</style>
<g id="Warstwa_x0020_1">
	<g>
		<path class="st0" d="M168,83.4c-0.2-0.5-0.4-1.1-0.6-1.6c-0.4-1.2-0.9-2.4-1.2-3.7c-0.2-0.7-0.3-1.4-0.4-2.1
			c-0.3-1.7-0.6-3.3-1.2-4.4c-0.6-1.1-1.4-2-2.5-2.9c2-1.5,4.7-3.8,4.6-8.2c0-5.5-4.1-8.8-11.1-9c-3.1-0.1-6.2,0.4-8.3,1.2l-0.3,0.1
			l0,31.3l5.9,0V71.3c3.3,0,5.1,0.2,5.9,1.3c0.8,1,1.1,2.6,1.4,4.5c0.3,2,0.7,4.2,1.7,6.6l0.1,0.2l6,0.1L168,83.4z M153.1,57
			c0.3,0,0.6,0,1,0c3.4-0.1,7-0.1,7.2,4c0.1,1.2-0.4,2.4-1.2,3.3c-1,1.1-2.4,1.7-3.8,1.7l-3.3,0L153.1,57z"/>
		<path class="st0" d="M97.9,51.3c-7.4,0-13.4,7.4-13.4,16.4c0,9.1,6,16.4,13.4,16.4c7.4,0,13.4-7.4,13.4-16.4
			C111.3,58.7,105.3,51.3,97.9,51.3z M105.8,67.8c0,6.2-3.5,11.2-7.9,11.2c-4.4,0-7.9-5-7.9-11.2c0-6.2,3.5-11.2,7.9-11.2
			C102.2,56.6,105.8,61.6,105.8,67.8z"/>
		<path class="st0" d="M125.6,65.5c-3-1.3-5.5-2.4-5.3-5.9c0.1-1.1,0.4-1.9,1.1-2.4c1.9-1.3,5.6-0.1,7.4,0.4c0.7,0.2,1,0.3,1.2,0.3
			l0.3,0l1.2-4.4l-0.2-0.2c-3.3-2.3-7.9-2.7-11.6-1c-2.9,1.3-4.9,3.6-5.3,6.5c-0.4,2.7-0.1,6.5,3.6,9.1c0.8,0.5,1.9,1,3,1.5
			c3,1.3,6.5,2.7,6,6.1c-0.2,1.3-0.7,2.1-1.7,2.7c-1.8,1-4.9,0.7-9.3-1l-0.5-0.2l-1.7,5.2l0.3,0.2c0.6,0.3,4.2,1.5,8.2,1.5
			c2,0,4.2-0.3,6-1.2c2.3-1.2,3.8-3.2,4.3-6.1C133.8,69,129.5,67.1,125.6,65.5z"/>
		<polygon class="st0" points="136.4,60.3 136.4,84 142.3,84 142.3,60.3 		"/>
		<path class="st0" d="M139.3,51c-1.9,0-3.4,1.5-3.4,3.4c0,1.9,1.5,3.4,3.4,3.4c1.9,0,3.4-1.5,3.4-3.4C142.7,52.6,141.2,51,139.3,51
			z"/>
	</g>
	<g>
		<path class="st1" d="M115.8,11.6c-0.7-0.4-3.7,0.4-22.2,9.7c-0.7,0.4-1.3,0.6-1.6,0.8c-1.7,0.8-3.3,1.7-4.9,2.6
			c-2,1.1-4.1,2.2-6.2,3.2c-1.5,0.7-2.7,1.4-3.8,2.1c-1.6,1-2.8,1.7-3.8,1.5c-0.7-0.2-1.4-0.8-2.1-2.1c-5.3-9-37.3,1.6-51,6.1
			c-2.5,0.8-4.4,1.5-5.2,1.6L14,37.4l1.1,0.5c1.6,0.7,12.2-0.7,24.9-2.4c3.8-0.5,6.8-0.9,8-1c8.8-0.8,14.5,2.2,19,4.7
			c3,1.6,5.5,2.9,8.2,2.9c0.1,0,0.2,0,0.2,0c2.6,0,5.8-2.8,10.1-6.6c2.4-2.1,5.1-4.5,8.2-6.8c4.6-3.4,9.4-6.9,13.3-9.7
			c4.3-3.1,7.7-5.5,8.9-6.6l0.5-0.5L115.8,11.6z"/>
		<path class="st1" d="M74.2,25.1c0.9,0,1.9-0.1,2.9-0.5c7.5-2.3,10.1-10.3,8.4-16.7c-1.2-4.6-5.2-9.3-12.3-7.6
			c-3.8,0.9-6.6,3.8-7.8,8c-1.4,5.2-0.1,11.2,3.1,14.3C69.8,23.9,71.7,25.1,74.2,25.1z"/>
		<path class="st1" d="M62.5,58.9l-0.7-0.4L30.3,87.3L2,112.3l0.4,0.7c9-2.8,23-11.9,35.6-23.1C50.3,78.8,59.7,66.9,62.5,58.9z"/>
		<path class="st1" d="M78,53.8c-3.8-0.9-10.4,4.1-10.6,4.8l-0.2,0.5l0.6,0c0.6,0,1.3,0,2-0.1c1.9-0.1,4-0.3,5,0.8
			c2.1,2.5-9.4,16.2-12.5,19.3c-6.8,6.8-11.1,9.7-18.9,14.9l-1.5,1l1.2,0.1c0.1,0,0.3,0,0.4,0c7.5,0,24.6-14.4,28.9-18.6
			c4.7-4.6,7.8-10.3,8.4-15.7C81.2,56.7,80.3,54.3,78,53.8z"/>
	</g>
	<rect x="83.3" y="87.4" class="st2" width="84.9" height="1.4"/>
	<path class="st3" d="M94.5,102.8c0,0.8-0.1,1.5-0.4,2.1c-0.3,0.6-0.6,1.1-1.1,1.5c-0.5,0.5-1.1,0.8-1.7,1c-0.6,0.2-1.4,0.3-2.3,0.3
		h-4V91.8h3.7c1,0,1.7,0,2.2,0.1c0.5,0.1,1,0.3,1.4,0.5c0.5,0.3,0.9,0.7,1.1,1.2c0.2,0.5,0.3,1.1,0.3,1.7c0,0.7-0.2,1.4-0.5,2
		c-0.3,0.6-0.8,1.1-1.4,1.4v0.1c0.8,0.3,1.5,0.7,1.9,1.4C94.3,100.9,94.5,101.8,94.5,102.8z M91.9,95.7c0-1.2-0.8-1.9-1.7-2
		c-0.4,0-0.9-0.1-1.5-0.1h-1.4v4.7H89c0.6,0,1,0,1.3-0.1C91.4,97.9,91.9,96.9,91.9,95.7L91.9,95.7z M92.5,102.9c0-1.6-1.1-2.6-2-2.8
		c-0.3-0.1-0.8-0.1-1.5-0.1h-1.7v5.9h1.1c0.8,0,1.5,0,1.9-0.1C91.4,105.5,92.5,104.5,92.5,102.9L92.5,102.9z M101.2,107.7H99V95.7
		h2.3V107.7z M110.4,98.2l-1.8,1.4v8.1h-2V101l-1.7,1.4v-1.7l1.7-1.4v-8.3h2v6.8l1.8-1.4V98.2z M120.9,104.4v-6
		c-0.5-0.2-1-0.4-1.4-0.5c-0.4-0.1-0.7-0.1-1.1-0.1c-2,0-3,2-3,3.8c0,2.7,1.3,4.7,4,3.7C119.9,105.1,120.4,104.8,120.9,104.4
		L120.9,104.4z M114.3,109.6c0.1,0.1,0.3,0.1,0.6,0.2c0.3,0.1,0.6,0.2,0.9,0.3c0.4,0.1,0.7,0.2,1,0.2c0.3,0.1,0.7,0.1,1,0.1
		c0.6,0,1-0.1,1.4-0.3c0.4-0.2,0.8-0.4,1-0.7c0.2-0.3,0.4-0.6,0.5-1c0.1-0.4,0.1-0.8,0.1-1.3v-1c-0.5,0.5-1.1,0.8-1.6,1
		c-0.5,0.2-1,0.4-1.8,0.4c-3,0-4.1-2.9-4.1-5.7c0-1.6,0.2-3.2,1.2-4.3c0.4-0.5,1-0.9,1.6-1.2c0.6-0.3,1.1-0.3,1.8-0.3
		c1.3,0,1.7,0.4,2.9,1.2l0.1-1l2,0v10.1c0,2-0.4,3.5-1.3,4.5c-0.9,0.9-2.2,1.4-4.1,1.4c-0.6,0-1.2,0-1.8-0.1
		c-0.6-0.1-1.2-0.2-1.7-0.4v-2.1H114.3L114.3,109.6z M137.5,101.8c0,1.9-0.5,3.4-1.4,4.4c-0.9,1-2.1,1.6-3.7,1.6
		c-1.6,0-2.8-0.5-3.7-1.6c-0.9-1.1-1.3-2.5-1.3-4.4c0-1.9,0.5-3.4,1.4-4.4c0.9-1.1,2.1-1.6,3.7-1.6c1.5,0,2.7,0.5,3.7,1.6
		C137,98.4,137.5,99.9,137.5,101.8z M135.5,101.8c0-1.5-0.3-2.6-0.8-3.3c-0.5-0.7-1.3-1.1-2.3-1.1c-1,0-1.8,0.4-2.3,1.1
		c-0.5,0.7-0.8,1.8-0.8,3.3c0,1.4,0.3,2.5,0.8,3.3c0.5,0.7,1.3,1.1,2.3,1.1c1,0,1.7-0.4,2.3-1.1
		C135.2,104.3,135.5,103.2,135.5,101.8z M147.4,98.4h-0.1c-0.2-0.1-1,0-1.3,0c-0.8,0.1-1.4,0.6-2,1.4v7.8h-2V96.4h2v1.8
		c0.6-1.2,1.5-2.2,3-2.1c0.1,0,0.2,0,0.3,0L147.4,98.4L147.4,98.4z M156.8,104.7v-3.1c-1,0.1-2.1,0-3,0.3c-0.5,0.2-1,0.4-1.3,0.8
		c-0.3,0.3-0.5,0.8-0.5,1.4c0,1.5,1.1,2,2.1,2C155.1,106,156.1,105.4,156.8,104.7L156.8,104.7z M156.8,106.4c-1.1,0.8-2,1.1-3.1,1.2
		c-1.3,0.1-2.8-0.1-3.5-1.9c-0.2-0.5-0.3-1-0.3-1.5c0-0.8,0.2-1.2,0.5-1.8c1.3-2.1,4.2-2.1,6.3-2.2c0-0.5,0-0.9-0.2-1.4
		c-0.1-0.3-0.3-0.5-0.6-0.7c-1.3-0.8-3.1-0.1-4.3,0.4h-0.1v-2c1.5-0.4,2.9-0.7,4.5-0.4c0.6,0.1,1.1,0.4,1.5,0.7
		c0.4,0.3,0.8,0.8,1,1.3c0.4,0.9,0.3,1.6,0.3,2.6v7h-2V106.4L156.8,106.4z M166.2,108c0,1.4-0.4,2.4-1.1,3.1c-0.7,0.7-1.7,1.1-3,1.1
		l-0.4,0l0-1.8c0.8,0,1-0.1,1.3-0.2c0.3-0.1,0.6-0.3,0.8-0.6c0.2-0.3,0.3-0.6,0.3-1c0.1-0.4,0.1-0.9,0.1-1.4v-9.8l0-1.3h2L166.2,108
		z M100.1,91.3c0.8,0,1.5,0.7,1.5,1.5c0,0.8-0.7,1.5-1.5,1.5c-0.8,0-1.5-0.7-1.5-1.5C98.6,92,99.3,91.3,100.1,91.3z M165.1,91.3
		c0.8,0,1.5,0.7,1.5,1.5c0,0.8-0.7,1.5-1.5,1.5c-0.8,0-1.5-0.7-1.5-1.5C163.6,92,164.3,91.3,165.1,91.3z"/>
</g>
</svg>
